{"title":"Funeral.in.Berlin.1966.DVDRip.XviD.AC3-eXceSs","uid":12170926,"size":733534208,"categoryP":"video","categoryS":"movies","magnet":"?xt=urn:btih:cc5e15d7cef662679b9f6deb35af9b06e93af01b&amp;dn=Funeral.in.Berlin.1966.DVDRip.XviD.AC3-eXceSs&amp;tr=udp%3A%2F%2Ftracker.openbittorrent.com%3A80&amp;tr=udp%3A%2F%2Fopen.demonii.com%3A1337&amp;tr=udp%3A%2F%2Ftracker.coppersurfer.tk%3A6969&amp;tr=udp%3A%2F%2Fexodus.desync.com%3A6969","seeders":0,"leechers":0,"uploader":null,"files":1,"time":1438179833,"description":"General\nComplete name                  : Funeral.in.Berlin.1966.DVDRip.XviD.AC3-eXceSs.avi\nFormat                         : AVI\nFormat/Info                    : Audio Video Interleave\nFile size                      : 700 MiB\nDuration                       : 1h 37mn\nOverall bit rate               : 998 Kbps\nWriting application            : VirtualDubMod 1.5.4.1 (build 2178/release)\nWriting library                : VirtualDubMod build 2178/release\n\nVideo\nID                             : 0\nFormat                         : MPEG-4 Visual\nFormat profile                 : Advanced Simple@L5\nFormat settings, BVOP          : 1\nFormat settings, QPel          : No\nFormat settings, GMC           : No warppoints\nFormat settings, Matrix        : Custom\nCodec ID                       : XVID\nCodec ID/Hint                  : XviD\nDuration                       : 1h 37mn\nBit rate                       : 799 Kbps\nWidth                          : 720 pixels\nHeight                         : 320 pixels\nDisplay aspect ratio           : 2.25:1\nFrame rate                     : 25.000 fps\nColor space                    : YUV\nChroma subsampling             : 4:2:0\nBit depth                      : 8 bits\nScan type                      : Progressive\nCompression mode               : Lossy\nBits/(Pixel*Frame)             : 0.139\nStream size                    : 560 MiB (80%)\nWriting library                : XviD 64\n\nAudio\nID                             : 1\nFormat                         : AC-3\nFormat/Info                    : Audio Coding 3\nMode extension                 : CM (complete main)\nFormat settings, Endianness    : Big\nCodec ID                       : 2000\nDuration                       : 1h 37mn\nBit rate mode                  : Constant\nBit rate                       : 192 Kbps\nChannel(s)                     : 2 channels\nChannel positions              : Front: L R\nSampling rate                  : 48.0 KHz\nBit depth                      : 16 bits\nCompression mode               : Lossy\nStream size                    : 134 MiB (19%)\nAlignment                      : Split accross interleaves\nInterleave, duration           : 96 ms (2.40 video frames)\nInterleave, preload duration   : 96 ms\nLanguage                       : English","torrent":{"xt":"urn:btih:cc5e15d7cef662679b9f6deb35af9b06e93af01b","amp;dn":"Funeral.in.Berlin.1966.DVDRip.XviD.AC3-eXceSs","amp;tr":["udp%3A%2F%2Ftracker.openbittorrent.com%3A80","udp%3A%2F%2Fopen.demonii.com%3A1337","udp%3A%2F%2Ftracker.coppersurfer.tk%3A6969","udp%3A%2F%2Fexodus.desync.com%3A6969"],"infoHash":"cc5e15d7cef662679b9f6deb35af9b06e93af01b","infoHashBuffer":{"type":"Buffer","data":[204,94,21,215,206,246,98,103,155,159,109,235,53,175,155,6,233,58,240,27]},"announce":[],"urlList":[]}}